<svg  version="1.0" xmlns="http://www.w3.org/2000/svg"  width="225.000000pt" height="249.000000pt" viewBox="0 0 225.000000 249.000000"  preserveAspectRatio="xMidYMid meet">  <g transform="translate(0.000000,249.000000) scale(0.100000,-0.100000)" fill="#ffffff" stroke="none"> <path d="M2060 2284 c-159 -179 -414 -414 -582 -537 -191 -139 -479 -293 -712 -382 -222 -84 -279 -149 -296 -338 -18 -196 -91 -349 -231 -482 -35 -34 -81 -71 -102 -84 -34 -21 -36 -24 -20 -36 14 -10 23 -10 53 3 209 95 369 299 440 562 36 132 53 166 99 197 17 12 116 50 219 84 386 128 621 248 829 423 153 128 236 231 314 387 43 85 82 221 77 268 -3 30 -5 28 -88 -65z m24 -71 c-13 -58 -99 -218 -154 -287 -208 -262 -536 -462 -1001 -612 -264 -85 -293 -106 -338 -249 -16 -49 -32 -106 -36 -125 -13 -63 -128 -270 -142 -256 -3 2 7 26 20 53 39 77 67 180 77 285 11 112 30 157 88 210 50 45 55 48 177 93 147 55 403 181 541 267 217 135 391 278 624 512 74 75 138 136 143 136 4 0 5 -12 1 -27z"/> <path d="M1820 1608 c-214 -156 -516 -287 -900 -392 -158 -44 -167 -47 -202 -87 -23 -25 -38 -52 -38 -66 l0 -25 198 5 c374 10 571 83 763 284 59 62 175 217 232 310 11 18 10 17 -53 -29z m-127 -159 c-31 -54 -145 -165 -217 -213 -149 -99 -314 -143 -567 -153 -161 -6 -186 -1 -153 31 8 9 45 25 82 35 37 11 132 38 212 61 181 52 367 125 524 206 67 34 125 62 129 63 5 1 0 -13 -10 -30z"/> <path d="M1625 1116 c-59 -25 -292 -86 -410 -107 -82 -14 -182 -23 -315 -26 l-195 -6 -34 -36 -34 -36 64 -7 c35 -4 118 -26 184 -48 242 -83 418 -59 591 77 52 42 202 203 188 203 -5 -1 -22 -7 -39 -14z m-154 -136 c-109 -98 -244 -147 -379 -138 -71 5 -304 76 -296 90 3 4 56 8 117 8 131 0 337 29 492 68 61 16 112 26 115 24 3 -2 -19 -26 -49 -52z"/> <path d="M625 840 c-21 -23 -21 -22 23 -40 18 -7 83 -51 145 -98 148 -112 201 -137 293 -137 61 0 80 5 145 37 40 20 99 60 129 88 l55 51 -75 -6 c-87 -7 -292 16 -395 44 -38 10 -108 33 -154 50 -99 36 -141 39 -166 11z m219 -74 c105 -36 323 -76 420 -76 18 0 18 -1 2 -19 -53 -58 -190 -82 -279 -47 -39 15 -142 84 -227 153 -24 20 4 16 84 -11z"/> <path d="M587 774 c-3 -4 4 -21 17 -38 12 -17 38 -66 56 -109 42 -98 135 -203 215 -242 61 -30 60 -30 188 22 l89 37 -52 13 c-86 22 -179 78 -283 171 -152 134 -207 169 -230 146z m186 -162 c67 -61 127 -106 211 -157 28 -17 29 -18 11 -31 -37 -27 -88 -17 -151 29 -33 24 -71 59 -85 78 -24 31 -79 131 -79 144 0 15 25 -2 93 -63z"/> <path d="M557 694 c-3 -4 -2 -15 3 -24 5 -10 14 -58 20 -107 23 -205 51 -277 123 -312 42 -20 118 -28 151 -15 14 5 11 12 -16 38 -54 53 -129 173 -181 291 -27 60 -54 116 -59 123 -11 13 -31 16 -41 6z m130 -275 c26 -44 56 -93 66 -110 17 -26 17 -29 2 -29 -36 0 -72 30 -92 77 -20 46 -40 143 -30 143 3 0 27 -36 54 -81z"/> <path d="M500 556 c0 -30 -7 -114 -15 -187 -9 -73 -13 -144 -10 -159 4 -18 25 -40 66 -68 79 -55 92 -56 65 -4 -21 42 -36 124 -51 291 -14 142 -23 181 -46 181 -5 0 -9 -24 -9 -54z"/> <path d="M417 425 c-4 -24 -17 -71 -31 -104 l-24 -59 28 -20 28 -21 11 75 c13 90 14 161 2 168 -4 3 -11 -14 -14 -39z"/> <path d="M337 345 c-26 -53 -26 -55 -7 -65 11 -6 20 -7 20 -3 0 4 6 29 14 54 21 69 4 78 -27 14z"/> <path d="M281 346 c-20 -21 -21 -24 -5 -30 19 -7 34 9 34 37 0 22 -2 22 -29 -7z"/> </g> </svg> 